<svg xmlns="http://www.w3.org/2000/svg" width="1600" height="1000" viewBox="0 0 1600 1000">
  <defs>
    <linearGradient id="bg" x1="0" y1="0" x2="1" y2="1">
      <stop offset="0" stop-color="#f7fafc"/>
      <stop offset="1" stop-color="#eef2f7"/>
    </linearGradient>
    <linearGradient id="accent" x1="0" y1="0" x2="1" y2="0">
      <stop offset="0" stop-color="#3d6b85" stop-opacity="0.22"/>
      <stop offset="1" stop-color="#3d6b85" stop-opacity="0.06"/>
    </linearGradient>
  </defs>
  <rect width="1600" height="1000" rx="48" fill="url(#bg)"/>
  <rect x="120" y="120" width="1360" height="760" rx="36" fill="#ffffff" opacity="0.95"/>
  <rect x="120" y="120" width="1360" height="88" rx="36" fill="#ffffff"/>
  <circle cx="160" cy="164" r="10" fill="#ff5f57"/>
  <circle cx="192" cy="164" r="10" fill="#febc2e"/>
  <circle cx="224" cy="164" r="10" fill="#28c840"/>
  <rect x="290" y="146" width="240" height="36" rx="18" fill="#3d6b85" opacity="0.20"/>
  <rect x="1020" y="152" width="120" height="22" rx="11" fill="#0f172a" opacity="0.10"/>
  <rect x="1160" y="152" width="120" height="22" rx="11" fill="#0f172a" opacity="0.08"/>
  <rect x="1300" y="152" width="120" height="22" rx="11" fill="#0f172a" opacity="0.06"/>

  <rect x="200" y="260" width="520" height="520" rx="28" fill="url(#accent)"/>
  <rect x="260" y="324" width="360" height="28" rx="14" fill="#0f172a" opacity="0.14"/>
  <rect x="260" y="368" width="420" height="18" rx="9" fill="#0f172a" opacity="0.09"/>
  <rect x="260" y="400" width="380" height="18" rx="9" fill="#0f172a" opacity="0.07"/>
  <rect x="260" y="452" width="200" height="48" rx="16" fill="#3d6b85" opacity="0.92"/>
  <rect x="260" y="532" width="420" height="10" rx="5" fill="#0f172a" opacity="0.06"/>
  <rect x="260" y="552" width="390" height="10" rx="5" fill="#0f172a" opacity="0.05"/>
  <rect x="260" y="572" width="350" height="10" rx="5" fill="#0f172a" opacity="0.04"/>

  <g opacity="0.95">
    <rect x="760" y="260" width="640" height="240" rx="24" fill="#f1f5f9"/>
    <rect x="800" y="310" width="360" height="20" rx="10" fill="#0f172a" opacity="0.12"/>
    <rect x="800" y="346" width="520" height="16" rx="8" fill="#0f172a" opacity="0.08"/>
    <rect x="800" y="376" width="460" height="16" rx="8" fill="#0f172a" opacity="0.06"/>
    <rect x="800" y="420" width="160" height="40" rx="14" fill="#0f172a" opacity="0.08"/>

    <rect x="760" y="540" width="308" height="240" rx="24" fill="#f1f5f9"/>
    <rect x="800" y="590" width="200" height="18" rx="9" fill="#0f172a" opacity="0.10"/>
    <rect x="800" y="624" width="240" height="14" rx="7" fill="#0f172a" opacity="0.07"/>
    <rect x="800" y="652" width="210" height="14" rx="7" fill="#0f172a" opacity="0.06"/>

    <rect x="1092" y="540" width="308" height="240" rx="24" fill="#f1f5f9"/>
    <rect x="1132" y="590" width="190" height="18" rx="9" fill="#0f172a" opacity="0.10"/>
    <rect x="1132" y="624" width="240" height="14" rx="7" fill="#0f172a" opacity="0.07"/>
    <rect x="1132" y="652" width="220" height="14" rx="7" fill="#0f172a" opacity="0.06"/>
  </g>
</svg>

