<svg xmlns="http://www.w3.org/2000/svg" width="1600" height="1000" viewBox="0 0 1600 1000">
  <defs>
    <linearGradient id="bg" x1="0" y1="0" x2="1" y2="1">
      <stop offset="0" stop-color="#f7fafc"/>
      <stop offset="1" stop-color="#eef2f7"/>
    </linearGradient>
    <linearGradient id="accent" x1="0" y1="0" x2="1" y2="0">
      <stop offset="0" stop-color="#3d6b85" stop-opacity="0.18"/>
      <stop offset="1" stop-color="#3d6b85" stop-opacity="0.04"/>
    </linearGradient>
  </defs>
  <rect width="1600" height="1000" rx="48" fill="url(#bg)"/>
  <rect x="120" y="120" width="1360" height="760" rx="36" fill="#ffffff" opacity="0.95"/>
  <rect x="120" y="120" width="1360" height="86" rx="36" fill="#ffffff"/>
  <circle cx="160" cy="163" r="10" fill="#ff5f57"/>
  <circle cx="192" cy="163" r="10" fill="#febc2e"/>
  <circle cx="224" cy="163" r="10" fill="#28c840"/>
  <rect x="290" y="146" width="260" height="34" rx="17" fill="#0f172a" opacity="0.08"/>
  <rect x="600" y="146" width="520" height="34" rx="17" fill="#0f172a" opacity="0.06"/>
  <rect x="1140" y="146" width="110" height="34" rx="17" fill="#3d6b85" opacity="0.18"/>
  <rect x="1270" y="146" width="170" height="34" rx="17" fill="#3d6b85" opacity="0.22"/>

  <rect x="200" y="260" width="310" height="620" rx="26" fill="#f1f5f9"/>
  <rect x="240" y="308" width="230" height="18" rx="9" fill="#0f172a" opacity="0.10"/>
  <rect x="240" y="346" width="190" height="14" rx="7" fill="#0f172a" opacity="0.06"/>
  <rect x="240" y="380" width="210" height="14" rx="7" fill="#0f172a" opacity="0.06"/>
  <rect x="240" y="414" width="160" height="14" rx="7" fill="#0f172a" opacity="0.05"/>
  <rect x="240" y="470" width="230" height="10" rx="5" fill="#0f172a" opacity="0.05"/>
  <rect x="240" y="490" width="200" height="10" rx="5" fill="#0f172a" opacity="0.04"/>
  <rect x="240" y="510" width="180" height="10" rx="5" fill="#0f172a" opacity="0.03"/>

  <rect x="540" y="260" width="900" height="160" rx="26" fill="url(#accent)"/>
  <rect x="600" y="310" width="420" height="26" rx="13" fill="#0f172a" opacity="0.14"/>
  <rect x="600" y="350" width="540" height="18" rx="9" fill="#0f172a" opacity="0.08"/>
  <rect x="600" y="380" width="460" height="18" rx="9" fill="#0f172a" opacity="0.06"/>

  <g opacity="0.95">
    <rect x="540" y="450" width="280" height="210" rx="22" fill="#f1f5f9"/>
    <rect x="570" y="478" width="220" height="120" rx="16" fill="#0f172a" opacity="0.06"/>
    <rect x="570" y="610" width="160" height="16" rx="8" fill="#0f172a" opacity="0.10"/>
    <rect x="570" y="638" width="110" height="16" rx="8" fill="#3d6b85" opacity="0.35"/>

    <rect x="860" y="450" width="280" height="210" rx="22" fill="#f1f5f9"/>
    <rect x="890" y="478" width="220" height="120" rx="16" fill="#0f172a" opacity="0.06"/>
    <rect x="890" y="610" width="170" height="16" rx="8" fill="#0f172a" opacity="0.10"/>
    <rect x="890" y="638" width="120" height="16" rx="8" fill="#3d6b85" opacity="0.35"/>

    <rect x="1180" y="450" width="260" height="210" rx="22" fill="#f1f5f9"/>
    <rect x="1210" y="478" width="200" height="120" rx="16" fill="#0f172a" opacity="0.06"/>
    <rect x="1210" y="610" width="150" height="16" rx="8" fill="#0f172a" opacity="0.10"/>
    <rect x="1210" y="638" width="110" height="16" rx="8" fill="#3d6b85" opacity="0.35"/>

    <rect x="540" y="690" width="280" height="190" rx="22" fill="#f1f5f9"/>
    <rect x="570" y="718" width="220" height="100" rx="16" fill="#0f172a" opacity="0.06"/>
    <rect x="570" y="830" width="150" height="16" rx="8" fill="#0f172a" opacity="0.10"/>

    <rect x="860" y="690" width="280" height="190" rx="22" fill="#f1f5f9"/>
    <rect x="890" y="718" width="220" height="100" rx="16" fill="#0f172a" opacity="0.06"/>
    <rect x="890" y="830" width="160" height="16" rx="8" fill="#0f172a" opacity="0.10"/>

    <rect x="1180" y="690" width="260" height="190" rx="22" fill="#f1f5f9"/>
    <rect x="1210" y="718" width="200" height="100" rx="16" fill="#0f172a" opacity="0.06"/>
    <rect x="1210" y="830" width="140" height="16" rx="8" fill="#0f172a" opacity="0.10"/>
  </g>
</svg>

