<svg xmlns="http://www.w3.org/2000/svg" width="1600" height="1000" viewBox="0 0 1600 1000">
  <defs>
    <linearGradient id="bg" x1="0" y1="0" x2="1" y2="1">
      <stop offset="0" stop-color="#f7fafc"/>
      <stop offset="1" stop-color="#eef2f7"/>
    </linearGradient>
    <linearGradient id="hero" x1="0" y1="0" x2="1" y2="0">
      <stop offset="0" stop-color="#3d6b85" stop-opacity="0.18"/>
      <stop offset="1" stop-color="#3d6b85" stop-opacity="0.06"/>
    </linearGradient>
  </defs>
  <rect width="1600" height="1000" rx="48" fill="url(#bg)"/>
  <rect x="120" y="120" width="1360" height="760" rx="36" fill="#ffffff" opacity="0.95"/>
  <rect x="120" y="120" width="1360" height="72" rx="36" fill="#ffffff"/>
  <circle cx="160" cy="156" r="10" fill="#ff5f57"/>
  <circle cx="192" cy="156" r="10" fill="#febc2e"/>
  <circle cx="224" cy="156" r="10" fill="#28c840"/>
  <rect x="290" y="142" width="520" height="28" rx="14" fill="#0f172a" opacity="0.08"/>

  <rect x="200" y="260" width="1200" height="290" rx="28" fill="url(#hero)"/>
  <rect x="260" y="320" width="560" height="34" rx="17" fill="#0f172a" opacity="0.16"/>
  <rect x="260" y="372" width="760" height="22" rx="11" fill="#0f172a" opacity="0.10"/>
  <rect x="260" y="410" width="660" height="22" rx="11" fill="#0f172a" opacity="0.08"/>
  <rect x="260" y="462" width="190" height="52" rx="18" fill="#3d6b85" opacity="0.92"/>
  <rect x="468" y="462" width="190" height="52" rx="18" fill="#0f172a" opacity="0.08"/>

  <g opacity="0.95">
    <rect x="200" y="600" width="376" height="220" rx="24" fill="#f1f5f9"/>
    <rect x="230" y="640" width="220" height="20" rx="10" fill="#0f172a" opacity="0.12"/>
    <rect x="230" y="674" width="300" height="16" rx="8" fill="#0f172a" opacity="0.08"/>
    <rect x="230" y="704" width="270" height="16" rx="8" fill="#0f172a" opacity="0.06"/>

    <rect x="612" y="600" width="376" height="220" rx="24" fill="#f1f5f9"/>
    <rect x="642" y="640" width="210" height="20" rx="10" fill="#0f172a" opacity="0.12"/>
    <rect x="642" y="674" width="300" height="16" rx="8" fill="#0f172a" opacity="0.08"/>
    <rect x="642" y="704" width="250" height="16" rx="8" fill="#0f172a" opacity="0.06"/>

    <rect x="1024" y="600" width="376" height="220" rx="24" fill="#f1f5f9"/>
    <rect x="1054" y="640" width="240" height="20" rx="10" fill="#0f172a" opacity="0.12"/>
    <rect x="1054" y="674" width="300" height="16" rx="8" fill="#0f172a" opacity="0.08"/>
    <rect x="1054" y="704" width="260" height="16" rx="8" fill="#0f172a" opacity="0.06"/>
  </g>
</svg>

